<?xml version="1.0" standalone="no"?>
<!DOCTYPE svg PUBLIC "-//W3C//DTD SVG 20010904//EN"
 "http://www.w3.org/TR/2001/REC-SVG-20010904/DTD/svg10.dtd">
<svg version="1.0" xmlns="http://www.w3.org/2000/svg"
 width="750.000000pt" height="826.000000pt" viewBox="0 0 750.000000 826.000000"
 preserveAspectRatio="xMidYMid meet">

<g transform="translate(0.000000,826.000000) scale(0.100000,-0.100000)"
fill="#000000" stroke="none">
<path d="M3130 7640 c-63 -4 -161 -10 -217 -15 l-101 -7 -118 -122 c-65 -66
-256 -260 -423 -431 -168 -170 -340 -346 -383 -391 l-79 -81 65 -133 65 -132
-118 -122 c-258 -265 -355 -382 -497 -596 -317 -481 -494 -1075 -494 -1661 0
-87 4 -159 8 -159 4 0 13 5 20 12 6 6 34 11 62 11 52 -1 92 -19 122 -57 17
-20 18 -12 18 184 0 236 14 381 56 586 6 30 4 32 -27 39 -145 32 -162 228 -25
280 38 15 53 16 90 6 56 -14 56 -14 56 2 0 26 83 225 146 352 97 192 203 356
339 525 70 87 276 302 318 332 34 25 34 25 74 -77 15 -38 31 -72 35 -75 9 -7
48 -99 48 -115 0 -7 -30 -30 -66 -51 -168 -98 -277 -290 -258 -454 10 -88 82
-254 150 -345 18 -24 22 -43 21 -92 0 -45 5 -69 19 -90 16 -23 19 -47 19 -138
1 -60 5 -136 9 -167 8 -55 13 -62 85 -132 42 -40 85 -88 96 -106 11 -19 37
-47 58 -64 39 -31 66 -35 167 -24 19 2 26 -2 28 -19 3 -22 8 -23 92 -23 79 0
89 2 95 20 9 30 94 100 151 125 73 33 124 101 158 209 6 17 14 18 98 12 50 -3
118 -6 151 -6 l59 0 -7 -127 c-4 -71 -10 -131 -14 -135 -3 -4 -55 -9 -114 -10
-59 -2 -107 -7 -107 -12 0 -5 9 -23 20 -42 l21 -32 515 0 c284 0 518 -2 520
-5 3 -2 -47 -10 -110 -17 -63 -7 -119 -16 -124 -19 -5 -4 5 -119 24 -276 19
-148 33 -276 31 -283 -1 -7 -58 109 -127 259 -69 149 -128 273 -131 275 -5 3
-269 -26 -276 -31 -4 -2 154 -1286 159 -1290 2 -2 65 3 141 12 l137 16 -5 31
c-11 68 -66 538 -63 541 2 2 57 -120 123 -271 101 -234 122 -274 140 -274 25
0 268 30 272 33 2 3 -139 1174 -152 1260 l-5 37 69 0 70 0 6 -32 c3 -18 38
-307 79 -641 40 -334 76 -610 78 -612 6 -6 468 51 539 66 172 37 218 109 199
316 -17 171 -80 671 -94 740 -28 133 -93 194 -233 218 l-78 13 55 2 c114 5
109 1 152 132 66 203 135 501 172 748 9 58 21 132 26 165 6 33 14 92 18 130
l7 70 30 -3 c139 -14 227 -13 277 3 96 31 148 67 243 167 75 79 99 98 122 98
15 0 39 7 53 15 14 8 34 18 45 23 11 6 29 19 39 31 11 11 22 21 26 21 14 0
260 -335 260 -353 0 -2 22 -42 50 -88 97 -163 202 -422 258 -634 46 -176 52
-204 52 -234 0 -26 4 -29 43 -34 65 -8 136 -9 169 -2 34 8 34 3 -14 205 -52
221 -58 240 -130 429 -80 212 -218 470 -349 652 -90 127 -191 248 -210 254
-11 4 -19 10 -19 15 0 11 50 50 64 50 14 0 69 56 85 87 16 31 14 87 -6 127
-16 35 -16 36 12 76 36 52 38 110 6 171 -23 43 -23 44 -5 95 16 49 16 55 1 96
-20 51 -119 141 -187 169 -25 11 -57 26 -72 34 -20 11 -62 15 -176 15 -165 0
-163 -1 -181 65 -16 62 -66 132 -116 164 -88 56 -246 67 -320 21 -39 -24 -85
-94 -85 -129 0 -25 60 -91 82 -91 15 0 45 -36 71 -87 18 -34 24 -177 9 -187
-5 -3 -39 11 -75 30 -52 27 -68 41 -72 62 -34 169 -117 464 -175 617 -33 88
-48 115 -84 149 -23 22 -48 49 -53 60 -11 20 -63 27 -428 62 -188 18 -1132 28
-1345 14z m1670 -134 c85 -8 156 -15 158 -16 1 0 2 -9 2 -20 0 -11 4 -28 10
-38 13 -24 93 -265 134 -405 48 -164 91 -383 101 -522 3 -44 8 -98 10 -120 4
-45 7 -334 4 -437 -1 -38 -6 -68 -11 -68 -5 0 -8 -24 -7 -53 1 -29 0 -58 -4
-63 -8 -14 -16 -62 -21 -127 -5 -67 -14 -118 -31 -182 -8 -27 -19 -77 -25
-110 -13 -72 -84 -312 -109 -370 -5 -11 -17 -42 -26 -70 -16 -47 -76 -182 -96
-215 -5 -8 -14 -26 -19 -40 -18 -45 -26 -54 -56 -62 -35 -9 -343 -38 -405 -38
l-44 0 77 34 c86 38 136 74 201 146 93 104 174 254 198 370 7 30 14 49 16 43
9 -26 32 -12 43 25 30 106 19 159 -41 204 -37 27 -95 43 -104 28 -3 -5 9 -22
26 -38 37 -35 43 -29 -94 -88 -173 -75 -259 -96 -415 -101 -159 -6 -251 5
-377 44 -82 26 -90 29 -209 82 -68 31 -68 32 -50 52 10 11 29 25 43 32 56 27
19 54 -53 37 -88 -20 -130 -83 -129 -195 0 -75 30 -176 53 -183 10 -4 11 8 6
56 -9 82 8 88 27 10 56 -233 201 -433 377 -521 40 -21 82 -37 94 -38 18 -1 17
-2 -5 -9 -15 -4 -159 -9 -320 -11 l-294 -4 5 160 c16 503 -7 987 -65 1387 -65
445 -176 841 -341 1211 -24 53 -44 104 -44 112 0 9 10 20 23 25 62 26 374 65
717 90 80 5 163 12 185 14 94 9 740 -4 885 -18z m-1953 -290 c58 -79 177 -317
229 -460 149 -404 246 -859 263 -1230 9 -184 -1 -575 -19 -810 -5 -72 -10
-143 -10 -158 l0 -28 -73 0 c-41 0 -108 3 -149 6 l-75 7 8 44 c16 84 14 195
-4 230 -22 42 -72 89 -122 115 -43 23 -259 98 -280 98 -11 0 -63 62 -97 114
-6 9 -88 337 -88 351 0 2 17 9 38 14 92 26 132 77 132 168 0 66 -26 112 -85
152 -48 32 -53 33 -121 27 l-71 -6 -18 63 c-9 34 -25 87 -35 117 -27 81 -118
371 -151 480 l-29 95 53 50 c69 66 594 546 632 579 17 14 32 26 35 26 3 -1 19
-20 37 -44z m2649 -101 c96 -28 161 -105 188 -223 13 -56 14 -57 46 -54 l33 3
-52 -56 c-89 -94 -113 -179 -68 -245 23 -32 23 -36 9 -71 -18 -46 -10 -98 22
-136 21 -25 22 -31 10 -58 -7 -16 -13 -56 -14 -87 0 -46 5 -62 24 -85 23 -26
29 -28 98 -27 53 0 87 7 126 24 66 28 61 36 -9 16 -67 -20 -118 -20 -169 0
-45 18 -56 42 -47 101 12 69 105 131 239 159 83 17 140 9 216 -31 117 -61 165
-143 133 -227 -8 -22 -113 -88 -139 -88 -6 0 -44 -33 -84 -74 -85 -86 -116
-99 -223 -89 -79 7 -183 48 -229 91 -30 28 -76 115 -76 144 0 10 -14 28 -30
40 -39 28 -87 127 -95 194 -4 29 1 137 10 242 18 209 14 245 -31 314 -13 20
-49 56 -79 79 -30 23 -55 45 -55 50 0 17 65 82 95 95 40 18 90 17 151 -1z
m620 -295 c68 -31 162 -117 183 -169 15 -35 4 -77 -24 -87 -8 -3 -57 15 -109
41 -139 69 -191 66 -378 -22 -76 -35 -79 -36 -98 -18 -59 54 19 184 151 250
99 50 173 52 275 5z m-15 -220 c162 -50 253 -165 205 -258 -9 -17 -20 -33 -25
-36 -5 -4 -30 12 -56 34 -55 48 -163 84 -245 84 -35 -1 -88 -13 -145 -33 -49
-17 -97 -31 -107 -31 -21 0 -38 29 -38 66 0 39 78 111 170 157 89 43 144 47
241 17z m-782 -206 c23 -19 31 -34 31 -58 0 -80 62 -225 102 -238 10 -4 9 -17
-6 -57 -23 -65 -18 -121 19 -197 25 -52 26 -57 11 -72 -23 -24 -129 -22 -175
2 -31 17 -33 20 -27 59 9 68 10 425 2 510 -9 86 -5 92 43 51z m191 -403 c19
-48 80 -101 155 -137 112 -54 233 -56 360 -8 11 5 15 -1 15 -25 0 -38 -48 -73
-141 -101 -94 -29 -171 -26 -244 8 -109 52 -169 123 -181 215 -10 74 12 105
36 48z m-3030 -228 c52 -30 66 -100 30 -146 -16 -20 -38 -29 -98 -42 -167 -35
-211 -58 -238 -122 -29 -67 -10 -171 41 -239 14 -18 25 -36 25 -41 0 -5 -16
-17 -36 -28 -20 -11 -65 -51 -101 -89 -75 -81 -66 -84 -132 43 -109 211 -92
359 58 511 75 76 153 119 271 149 93 25 144 26 180 4z m3092 -42 c58 -39 117
-62 179 -70 l52 -6 -54 -54 c-116 -117 -209 -162 -332 -162 -62 0 -153 17
-162 30 -2 4 1 67 8 140 l11 132 40 -8 c63 -12 138 -8 171 10 39 21 37 22 87
-12z m-365 -28 c-3 -10 -5 -4 -5 12 0 17 2 24 5 18 2 -7 2 -21 0 -30z m0 -55
c-3 -8 -6 -5 -6 6 -1 11 2 17 5 13 3 -3 4 -12 1 -19z m-2896 -236 c11 -37 29
-97 39 -135 17 -65 17 -68 0 -77 -26 -14 -44 -4 -77 43 -42 61 -53 92 -53 148
0 40 5 55 25 75 14 14 30 22 35 19 5 -3 19 -36 31 -73z m2846 -84 c-3 -7 -5
-2 -5 12 0 14 2 19 5 13 2 -7 2 -19 0 -25z m3 -28 c0 -5 -5 -10 -11 -10 -5 0
-7 5 -4 10 3 6 8 10 11 10 2 0 4 -4 4 -10z m-1449 -50 c260 -112 464 -143 685
-105 108 19 188 44 316 101 54 23 100 39 103 34 9 -15 -44 -205 -62 -217 -28
-22 -193 -81 -288 -105 -79 -20 -116 -23 -305 -23 -190 0 -228 3 -322 24 -99
22 -110 26 -128 55 -20 33 -110 251 -110 267 0 14 11 11 111 -31z m-1283 -119
c58 -29 104 -81 97 -108 -4 -18 0 -24 22 -29 73 -16 283 -88 326 -112 27 -14
61 -42 76 -61 24 -32 26 -41 23 -119 -1 -46 -9 -103 -17 -125 -8 -23 -15 -57
-15 -75 0 -54 -24 -97 -64 -116 -34 -16 -39 -16 -62 -2 -13 9 -24 24 -24 34 0
15 -2 15 -10 2 -5 -8 -10 -24 -10 -36 0 -11 -10 -30 -22 -41 -38 -33 -135 -84
-150 -78 -8 3 -22 20 -30 38 l-15 31 -6 -41 c-8 -47 -48 -86 -114 -108 -61
-21 -124 10 -159 78 -17 32 -11 47 18 47 17 0 14 5 -18 28 -28 21 -40 25 -42
15 -6 -23 -25 -14 -80 37 l-54 48 -1 119 c-1 65 1 141 6 168 6 46 5 51 -15 60
-19 8 -24 19 -26 64 -4 73 31 143 108 214 89 83 181 107 258 68z m2675 -101
c-3 -12 -8 -19 -11 -16 -5 6 5 36 12 36 2 0 2 -9 -1 -20z m-26 -72 c-3 -8 -6
-5 -6 6 -1 11 2 17 5 13 3 -3 4 -12 1 -19z m-832 -212 c77 -1 172 3 210 7 69
8 70 7 48 -11 -12 -11 -54 -30 -95 -43 -60 -20 -93 -24 -188 -24 -104 1 -122
4 -187 30 -40 16 -73 35 -73 42 0 10 16 12 73 6 39 -4 135 -7 212 -7z m772
-28 c-3 -8 -6 -5 -6 6 -1 11 2 17 5 13 3 -3 4 -12 1 -19z m-7 -32 c0 -3 -4 -8
-10 -11 -5 -3 -10 -1 -10 4 0 6 5 11 10 11 6 0 10 -2 10 -4z m-103 -62 c-3 -3
-12 -4 -19 -1 -8 3 -5 6 6 6 11 1 17 -2 13 -5z m43 -108 c0 -8 -4 -18 -10 -21
-5 -3 -10 3 -10 14 0 12 5 21 10 21 6 0 10 -6 10 -14z m-165 -15 c3 -6 -1 -13
-8 -18 -19 -11 -77 -130 -77 -158 0 -12 -6 -27 -13 -33 -9 -8 -208 -12 -643
-12 l-629 -2 4 79 c2 43 6 83 10 90 5 9 102 13 376 17 385 5 760 20 855 35 77
12 118 13 125 2z m-1891 -166 c-9 -14 -42 -39 -73 -55 -31 -15 -72 -45 -91
-65 -48 -50 -85 -68 -125 -61 -34 7 -71 39 -61 54 3 5 26 15 50 22 25 7 85 37
133 66 48 30 99 54 113 55 14 0 34 4 45 8 28 12 29 7 9 -24z m1926 -120 c-7
-9 -15 -13 -19 -10 -3 3 1 10 9 15 21 14 24 12 10 -5z m-385 -5 c3 -5 1 -10
-4 -10 -6 0 -11 5 -11 10 0 6 2 10 4 10 3 0 8 -4 11 -10z m182 4 c-3 -3 -12
-4 -19 -1 -8 3 -5 6 6 6 11 1 17 -2 13 -5z m350 -132 c88 -46 98 -80 154 -527
48 -388 53 -506 25 -548 -22 -32 -73 -61 -137 -77 -40 -10 -491 -69 -496 -65
-6 4 -143 1153 -141 1175 3 23 9 26 68 33 340 43 458 45 527 9z m-836 -49 c0
-5 33 -273 73 -598 l72 -590 -80 -12 c-143 -21 -116 -47 -240 240 -60 138
-115 262 -122 275 -10 14 -24 22 -43 22 -56 0 -57 -7 -22 -293 17 -144 31
-269 31 -278 0 -13 -18 -18 -90 -25 -49 -5 -90 -9 -90 -7 0 1 -32 260 -70 575
-39 315 -69 584 -68 598 3 24 8 26 93 36 50 6 93 9 96 5 4 -3 60 -121 124
-261 65 -140 122 -261 127 -267 6 -7 23 -13 38 -13 55 0 56 7 20 300 -18 149
-30 273 -27 276 14 14 177 29 178 17z"/>
<path d="M4336 7477 c-16 -12 -18 -22 -12 -71 11 -82 17 -85 216 -87 184 -1
190 1 190 70 -1 51 -28 81 -81 92 -73 14 -292 11 -313 -4z m238 -16 c79 -6
102 -12 113 -26 17 -24 17 -85 1 -86 -7 0 -80 0 -163 1 -126 1 -152 4 -162 18
-14 17 -18 84 -6 95 8 9 93 8 217 -2z"/>
<path d="M3510 7453 c-190 -31 -319 -59 -337 -72 -15 -11 -22 -27 -23 -49 0
-47 38 -130 64 -138 33 -11 101 -5 194 17 47 11 121 27 165 35 94 16 117 33
116 83 -1 50 -10 75 -36 105 -19 22 -31 26 -70 25 -27 -1 -59 -4 -73 -6z m139
-76 c19 -61 9 -79 -50 -90 -24 -4 -114 -24 -200 -43 -86 -19 -164 -32 -172
-28 -8 3 -25 30 -37 59 -26 64 -18 89 32 99 204 38 312 55 358 53 l54 -2 15
-48z"/>
<path d="M4174 7442 c-33 -23 -15 -92 25 -92 39 0 66 61 39 88 -13 13 -47 16
-64 4z"/>
<path d="M4040 7421 c-15 -29 -12 -46 10 -66 17 -15 24 -16 45 -7 32 15 39 31
26 65 -8 21 -17 27 -40 27 -20 0 -34 -7 -41 -19z"/>
<path d="M4864 7419 c-40 -11 -63 -38 -70 -81 -13 -77 91 -132 143 -75 36 39
42 59 28 93 -19 46 -63 73 -101 63z m66 -46 c38 -49 9 -112 -52 -113 -36 0
-71 44 -63 80 14 60 79 78 115 33z"/>
<path d="M4154 7206 c-45 -7 -114 -26 -153 -41 -85 -32 -224 -122 -305 -197
-137 -126 -247 -357 -263 -553 -13 -162 32 -424 97 -562 101 -218 289 -381
515 -448 80 -24 227 -24 320 0 81 20 316 138 393 198 74 56 138 131 196 227
221 364 147 874 -168 1166 -125 117 -279 193 -421 209 -33 3 -76 8 -95 10 -19
2 -71 -2 -116 -9z m228 -50 c148 -29 280 -100 390 -213 129 -131 200 -261 243
-443 26 -109 24 -309 -4 -413 -64 -241 -208 -427 -403 -521 -117 -56 -179 -70
-298 -70 -118 0 -196 20 -320 81 -83 40 -108 59 -195 147 -83 83 -109 117
-147 191 -91 178 -126 350 -107 530 13 130 32 197 89 312 145 295 450 457 752
399z"/>
<path d="M4044 6945 c-251 -54 -433 -305 -434 -597 0 -255 152 -512 364 -612
369 -175 763 87 784 520 6 132 -15 229 -75 353 -124 254 -386 391 -639 336z
m212 -36 c204 -37 390 -227 449 -459 21 -82 21 -234 0 -315 -42 -163 -149
-303 -281 -365 -363 -174 -778 136 -776 579 2 288 169 509 427 564 39 9 122 7
181 -4z"/>
<path d="M4048 6691 c-90 -35 -152 -105 -188 -211 -19 -54 -21 -80 -17 -155 5
-102 23 -155 78 -235 145 -209 420 -220 546 -22 l35 55 -35 31 c-19 17 -40 41
-46 53 -28 55 1 128 63 157 34 16 37 20 31 49 -22 104 -139 238 -240 276 -70
26 -163 27 -227 2z"/>
<path d="M4660 3958 c-18 -10 -26 -23 -28 -49 -3 -38 94 -855 104 -871 22 -35
116 -24 155 18 35 37 34 101 -6 424 -48 395 -52 416 -84 451 -31 35 -101 48
-141 27z m111 -68 c14 -19 27 -92 54 -315 20 -159 39 -330 42 -380 5 -81 4
-92 -15 -108 -11 -10 -32 -19 -48 -20 l-27 -2 -52 420 c-29 231 -50 424 -48
428 10 18 76 2 94 -23z"/>
<path d="M6643 4382 l-121 -15 -6 -56 c-10 -93 -26 -322 -27 -391 l-1 -65 -15
50 c-80 276 -126 421 -133 429 -10 10 -300 -23 -300 -34 0 -5 75 -184 166
-400 l166 -392 28 -230 c15 -126 30 -231 33 -234 5 -5 294 30 301 37 2 2 -8
108 -24 234 l-28 230 72 428 72 427 -30 -1 c-17 -1 -86 -9 -153 -17z m123 -59
c-4 -16 -35 -197 -69 -403 l-64 -375 26 -207 c14 -114 22 -210 19 -214 -6 -5
-200 -34 -205 -30 -2 1 -14 98 -29 216 l-26 213 -157 371 -157 371 100 13 c54
7 101 11 103 8 7 -6 81 -253 109 -361 29 -112 37 -125 69 -125 40 0 47 22 56
182 4 84 11 195 15 245 l6 93 32 5 c17 3 60 9 96 14 36 5 69 9 73 10 5 0 6
-11 3 -26z"/>
<path d="M5640 4254 c-316 -36 -415 -47 -417 -48 -4 -3 154 -1287 159 -1291 5
-5 319 32 325 39 3 3 -9 123 -26 268 -18 145 -33 274 -34 288 -2 20 3 26 25
28 40 5 66 -14 77 -56 6 -20 22 -129 36 -242 14 -113 28 -221 31 -241 l5 -35
151 18 c84 10 153 20 155 21 5 5 -56 477 -67 517 -17 63 -105 127 -180 131 -8
0 3 8 25 17 106 45 120 73 112 221 -14 251 -95 361 -271 367 -39 1 -87 0 -106
-2z m218 -77 c72 -47 111 -163 112 -325 0 -76 -2 -85 -25 -106 -14 -13 -38
-27 -53 -31 -44 -11 -72 -34 -72 -59 0 -29 17 -44 61 -52 59 -12 105 -41 123
-78 10 -21 28 -126 45 -258 l28 -223 -104 -14 c-57 -7 -106 -11 -108 -9 -3 3
-16 95 -30 206 -31 249 -42 299 -70 327 -29 30 -95 41 -132 23 -39 -18 -39
-47 -3 -337 16 -134 29 -245 28 -247 -4 -3 -238 -31 -238 -28 0 2 -32 261 -70
576 -39 315 -69 584 -68 598 3 23 9 26 68 33 209 26 314 35 386 34 69 -2 86
-6 122 -30z"/>
<path d="M5570 4068 c-18 -10 -26 -23 -28 -46 -5 -49 28 -305 41 -321 15 -18
104 -7 137 17 37 28 45 70 33 177 -12 97 -31 148 -62 164 -33 18 -95 22 -121
9z m85 -44 c28 -11 45 -61 52 -153 4 -65 2 -95 -6 -105 -14 -16 -69 -31 -79
-22 -8 8 -41 269 -35 279 5 9 45 9 68 1z"/>
<path d="M3117 3960 c-82 -10 -151 -21 -154 -24 -3 -3 2 -58 11 -123 46 -330
106 -865 104 -918 -3 -59 -3 -60 -35 -63 -23 -2 -34 2 -42 17 -10 18 -109 789
-126 982 -4 42 -10 81 -14 86 -4 7 -38 6 -106 -3 -55 -7 -128 -16 -162 -20
-53 -6 -63 -10 -63 -26 0 -38 102 -855 120 -961 22 -129 52 -186 124 -234 67
-46 134 -63 240 -63 186 0 312 64 373 188 39 80 37 129 -33 700 -49 404 -61
482 -74 481 -8 -1 -82 -10 -163 -19z m179 -385 c78 -629 80 -658 61 -718 -34
-109 -129 -176 -276 -197 -203 -29 -350 57 -380 222 -29 159 -120 952 -111
958 12 8 221 33 226 27 2 -2 31 -224 64 -493 33 -269 65 -506 70 -526 13 -46
43 -68 93 -68 27 0 45 7 62 25 36 35 33 75 -33 620 l-58 470 80 11 c45 7 99
11 121 10 l40 -1 41 -340z"/>
<path d="M2035 3818 c-126 -16 -235 -30 -241 -32 -8 -3 -13 -198 -17 -658 -3
-359 -4 -654 -3 -655 1 -1 74 6 161 17 87 11 165 20 173 20 11 0 13 20 7 118
l-7 119 38 6 c93 16 89 19 109 -97 10 -58 21 -109 24 -114 5 -7 329 24 339 33
4 3 -338 1246 -347 1260 -4 7 -81 2 -236 -17z m205 -33 c0 -3 72 -267 160
-586 88 -319 160 -581 160 -583 0 -8 -233 -27 -239 -20 -5 5 -16 51 -26 101
-10 51 -24 98 -32 104 -17 15 -168 -2 -186 -21 -8 -7 -11 -47 -9 -119 l2 -108
-120 -13 c-67 -7 -123 -10 -126 -8 -2 3 -1 276 4 609 l7 604 170 21 c180 23
235 27 235 19z"/>
<path d="M2041 3556 c-9 -10 -12 -96 -12 -301 -1 -345 -6 -332 109 -320 96 9
110 24 94 103 -43 219 -110 502 -121 516 -17 20 -55 21 -70 2z m105 -344 c26
-117 44 -215 41 -219 -4 -3 -28 -8 -55 -11 l-49 -4 -6 77 c-9 101 -9 359 0
410 l7 40 8 -40 c4 -22 29 -136 54 -253z"/>
<path d="M1193 3717 l-162 -20 5 -41 c3 -22 38 -312 78 -644 41 -332 75 -605
78 -607 6 -6 521 56 530 64 6 6 -20 241 -28 250 -2 2 -47 -2 -99 -9 -53 -6
-98 -10 -100 -8 -2 2 -31 233 -66 513 -34 281 -64 513 -68 516 -3 3 -79 -4
-168 -14z m189 -512 c31 -258 60 -485 63 -503 8 -46 38 -55 133 -42 41 6 76 9
78 8 4 -5 17 -158 13 -159 -13 -3 -434 -55 -436 -54 -6 4 -143 1153 -141 1175
3 23 8 26 88 36 47 7 98 11 115 10 l30 -1 57 -470z"/>
<path d="M4822 2675 c-63 -7 -116 -15 -118 -18 -5 -5 93 -928 99 -934 6 -5
363 36 415 48 101 22 117 55 109 217 -4 64 -12 135 -18 156 -14 51 -57 93
-102 101 -63 12 -65 30 -8 65 60 37 66 53 58 154 -8 114 -46 183 -114 212 -40
17 -166 17 -321 -1z m220 -145 c12 -17 20 -50 24 -106 7 -79 6 -81 -21 -102
-27 -22 -79 -30 -89 -14 -9 15 -29 221 -22 237 10 27 84 16 108 -15z m33 -364
c23 -23 38 -99 39 -203 1 -50 -23 -79 -71 -89 -28 -6 -34 -3 -41 17 -12 33
-35 266 -28 284 9 25 73 19 101 -9z"/>
<path d="M4270 2613 c-68 -7 -126 -15 -128 -17 -4 -5 -21 -627 -22 -807 l0
-145 108 12 c59 7 107 13 107 14 0 0 -1 35 -3 78 -4 90 0 96 70 105 58 8 65 1
79 -94 l12 -75 104 12 c57 6 106 14 108 16 3 3 -48 209 -113 459 l-119 454
-39 1 c-21 1 -95 -5 -164 -13z m85 -200 c19 -50 85 -407 76 -416 -5 -5 -33
-10 -63 -11 l-53 -1 -3 190 c-2 105 0 205 3 223 6 35 29 43 40 15z"/>
<path d="M6640 2625 c-8 -2 -64 -9 -123 -16 -104 -12 -133 -21 -103 -32 8 -3
27 -27 42 -53 24 -40 28 -59 28 -115 -1 -74 -26 -129 -81 -181 -55 -51 -157
-69 -249 -43 -17 5 -31 -7 -78 -69 -31 -42 -60 -84 -63 -94 -15 -40 -108 -153
-166 -199 -69 -56 -149 -107 -186 -118 -13 -4 -59 -33 -103 -66 -157 -116
-413 -257 -607 -333 -223 -88 -411 -138 -671 -178 -96 -15 -612 -22 -690 -9
-337 54 -399 67 -585 130 -16 5 -57 17 -90 26 -33 10 -80 28 -105 40 -25 12
-72 30 -104 40 -100 28 -248 110 -366 202 -20 16 -93 72 -162 126 -184 142
-305 275 -414 454 l-41 68 -94 1 c-104 2 -178 -11 -196 -34 -10 -12 -15 -13
-28 -2 -31 25 -13 -2 74 -117 93 -123 328 -364 462 -475 379 -313 825 -528
1309 -633 351 -76 779 -87 1140 -30 103 17 123 21 280 60 415 105 819 308
1149 576 56 46 115 93 130 104 16 11 94 90 174 175 148 158 263 302 300 374
11 23 30 52 43 66 35 38 204 332 204 355 0 5 -3 5 -30 0z"/>
<path d="M3522 2535 c-63 -7 -116 -15 -118 -18 -5 -5 93 -928 99 -934 2 -2 50
2 105 8 82 10 102 15 102 28 0 9 -10 102 -21 208 -12 105 -19 199 -16 207 9
23 72 21 96 -3 20 -20 31 -81 52 -295 l12 -118 81 6 c114 10 118 11 111 49 -2
18 -12 97 -21 176 -8 79 -19 153 -24 165 -13 33 -51 63 -97 75 -24 7 -43 18
-43 25 0 7 22 23 50 35 66 30 77 64 62 186 -13 100 -41 158 -91 192 -30 20
-45 23 -130 22 -53 -1 -147 -7 -209 -14z m198 -125 c25 -13 40 -70 40 -151 0
-45 -5 -70 -14 -78 -19 -16 -82 -26 -89 -14 -10 15 -30 221 -24 237 7 18 58
21 87 6z"/>
<path d="M2925 2491 c-44 -11 -107 -46 -131 -73 -63 -69 -66 -122 -29 -464 28
-252 42 -317 81 -364 84 -99 240 -103 316 -8 l32 41 27 -33 c26 -31 31 -32 79
-28 28 3 53 8 57 11 7 7 -41 464 -50 473 -3 3 -59 0 -126 -7 l-121 -12 0 -38
c0 -50 8 -69 30 -69 11 0 22 -4 25 -10 11 -17 26 -183 19 -212 -13 -62 -94
-75 -115 -20 -13 34 -69 525 -69 609 0 56 3 64 25 79 21 14 31 15 51 6 31 -15
41 -41 50 -131 6 -64 9 -71 28 -71 24 0 189 20 193 23 1 1 -4 36 -12 78 -22
128 -60 181 -156 214 -43 16 -152 18 -204 6z"/>
</g>
</svg>
